HIERARCHY
ROOT newVegas:Hips
{
	OFFSET 0.000000 96.479958 0.000000
	CHANNELS 6 Xposition Yposition Zposition Xrotation Yrotation Zrotation
	JOINT newVegas:Pelvis
	{
		OFFSET 0.000000 0.000000 0.000000
		CHANNELS 3 Xrotation Yrotation Zrotation
		JOINT newVegas:LeftUpLeg
		{
			OFFSET 18.735201 -5.666702 -4.541200
			CHANNELS 3 Xrotation Yrotation Zrotation
			JOINT newVegas:LeftLeg
			{
				OFFSET -0.021200 -31.938179 0.493100
				CHANNELS 3 Xrotation Yrotation Zrotation
				JOINT newVegas:LeftFoot
				{
					OFFSET 0.021200 -31.938179 -4.336299
					CHANNELS 3 Xrotation Yrotation Zrotation
					JOINT newVegas:LeftToeBase
					{
						OFFSET 0.943001 -26.722000 15.023500
						CHANNELS 3 Xrotation Yrotation Zrotation
						End Site
						{
							OFFSET 0.000000 30.670183 0.000000
						}
					}
				}
				JOINT newVegas:Left_PantLeg
				{
					OFFSET 0.663870 -9.044666 -1.108900
					CHANNELS 3 Xrotation Yrotation Zrotation
					End Site
					{
						OFFSET 1.415995 20.635357 0.000000
					}
				}
			}
		}
		JOINT newVegas:RightUpLeg
		{
			OFFSET -18.735201 -5.666702 -4.541200
			CHANNELS 3 Xrotation Yrotation Zrotation
			JOINT newVegas:RightLeg
			{
				OFFSET 0.018946 -31.938133 0.493100
				CHANNELS 3 Xrotation Yrotation Zrotation
				JOINT newVegas:RightFoot
				{
					OFFSET -0.018946 -31.938126 -4.336299
					CHANNELS 3 Xrotation Yrotation Zrotation
					JOINT newVegas:RightToeBase
					{
						OFFSET -0.943001 -26.722004 15.023500
						CHANNELS 3 Xrotation Yrotation Zrotation
						End Site
						{
							OFFSET 0.000000 30.670187 0.000000
						}
					}
				}
				JOINT newVegas:Right_PantLeg
				{
					OFFSET -0.661674 -9.044716 -1.108900
					CHANNELS 3 Xrotation Yrotation Zrotation
					End Site
					{
						OFFSET -1.415958 20.635269 0.000000
					}
				}
			}
		}
	}
	JOINT newVegas:Spine
	{
		OFFSET 0.000000 10.199997 -0.299500
		CHANNELS 3 Xrotation Yrotation Zrotation
		JOINT newVegas:Spine1
		{
			OFFSET 0.000000 11.900002 -1.516600
			CHANNELS 3 Xrotation Yrotation Zrotation
			JOINT newVegas:Spine2
			{
				OFFSET 0.000000 13.600006 -2.842500
				CHANNELS 3 Xrotation Yrotation Zrotation
				JOINT newVegas:Neck
				{
					OFFSET 0.000000 9.624100 -2.890100
					CHANNELS 3 Xrotation Yrotation Zrotation
					JOINT newVegas:Head
					{
						OFFSET 0.000000 14.068802 -1.351900
						CHANNELS 3 Xrotation Yrotation Zrotation
						JOINT newVegas:Hair_Back
						{
							OFFSET 0.000000 3.231903 -17.524799
							CHANNELS 3 Xrotation Yrotation Zrotation
							End Site
							{
								OFFSET 0.000000 19.849884 0.000000
							}
						}
						JOINT newVegas:Hair_Front
						{
							OFFSET 0.000000 31.260406 4.573800
							CHANNELS 3 Xrotation Yrotation Zrotation
							JOINT newVegas:Hair_Front1
							{
								OFFSET 0.000000 2.284103 11.993300
								CHANNELS 3 Xrotation Yrotation Zrotation
								JOINT newVegas:Hair_Front2
								{
									OFFSET 0.000000 2.284103 11.993300
									CHANNELS 3 Xrotation Yrotation Zrotation
									End Site
									{
										OFFSET 0.000000 12.208862 0.000000
									}
								}
							}
						}
						JOINT newVegas:Jowel
						{
							OFFSET 0.000000 -7.458206 6.864100
							CHANNELS 3 Xrotation Yrotation Zrotation
							End Site
							{
								OFFSET 0.000000 19.849884 0.000000
							}
						}
					}
				}
				JOINT newVegas:LeftShoulder
				{
					OFFSET 15.263000 10.923401 -0.547700
					CHANNELS 3 Xrotation Yrotation Zrotation
					JOINT newVegas:LeftArm
					{
						OFFSET 25.438599 -2.830597 -13.032500
						CHANNELS 3 Xrotation Yrotation Zrotation
						JOINT newVegas:LeftForeArm
						{
							OFFSET 29.960503 0.000000 0.000000
							CHANNELS 3 Xrotation Yrotation Zrotation
							JOINT newVegas:LeftHand
							{
								OFFSET 27.849251 0.000000 0.000000
								CHANNELS 3 Xrotation Yrotation Zrotation
								JOINT newVegas:LeftHandThumb1
								{
									OFFSET 4.487587 -3.305161 6.305391
									CHANNELS 3 Xrotation Yrotation Zrotation
									JOINT newVegas:LeftHandThumb2
									{
										OFFSET 5.480453 -3.164139 3.164143
										CHANNELS 3 Xrotation Yrotation Zrotation
										JOINT newVegas:LeftHandThumb3
										{
											OFFSET 5.159721 -2.978973 2.978967
											CHANNELS 3 Xrotation Yrotation Zrotation
											End Site
											{
												OFFSET 2.494507 5.926697 1.738678
											}
										}
									}
								}
								JOINT newVegas:LeftHandIndex1
								{
									OFFSET 18.578728 -0.527832 5.208049
									CHANNELS 3 Xrotation Yrotation Zrotation
									JOINT newVegas:LeftHandIndex2
									{
										OFFSET 3.192009 0.000000 0.000000
										CHANNELS 3 Xrotation Yrotation Zrotation
										JOINT newVegas:LeftHandIndex3
										{
											OFFSET 3.835129 0.000000 0.000000
											CHANNELS 3 Xrotation Yrotation Zrotation
											End Site
											{
												OFFSET -0.034599 3.816971 0.371180
											}
										}
									}
								}
								JOINT newVegas:LeftHandMiddle1
								{
									OFFSET 18.476105 0.000000 0.000000
									CHANNELS 3 Xrotation Yrotation Zrotation
									JOINT newVegas:LeftHandMiddle2
									{
										OFFSET 3.324875 0.000000 0.000000
										CHANNELS 3 Xrotation Yrotation Zrotation
										JOINT newVegas:LeftHandMiddle3
										{
											OFFSET 4.596550 0.000000 0.000000
											CHANNELS 3 Xrotation Yrotation Zrotation
											End Site
											{
												OFFSET 0.057701 4.578827 0.399218
											}
										}
									}
								}
								JOINT newVegas:LeftHandRing1
								{
									OFFSET 17.732719 0.121887 -4.201567
									CHANNELS 3 Xrotation Yrotation Zrotation
									JOINT newVegas:LeftHandRing2
									{
										OFFSET 2.733170 0.000000 0.000000
										CHANNELS 3 Xrotation Yrotation Zrotation
										JOINT newVegas:LeftHandRing3
										{
											OFFSET 3.178268 0.000000 0.000000
											CHANNELS 3 Xrotation Yrotation Zrotation
											End Site
											{
												OFFSET 0.119102 3.170624 0.185394
											}
										}
									}
								}
								JOINT newVegas:LeftHandPinky1
								{
									OFFSET 15.989624 -0.606689 -7.535461
									CHANNELS 3 Xrotation Yrotation Zrotation
									JOINT newVegas:LeftHandPinky2
									{
										OFFSET 2.538986 0.000000 0.000000
										CHANNELS 3 Xrotation Yrotation Zrotation
										JOINT newVegas:LeftHandPinky3
										{
											OFFSET 2.593102 0.000000 0.000000
											CHANNELS 3 Xrotation Yrotation Zrotation
											End Site
											{
												OFFSET -0.150902 2.584198 0.152708
											}
										}
									}
								}
							}
							JOINT newVegas:Left_Sleeve
							{
								OFFSET 0.267448 -0.649796 0.577675
								CHANNELS 3 Xrotation Yrotation Zrotation
								End Site
								{
									OFFSET 0.000000 15.991241 0.000000
								}
							}
							JOINT newVegas:Left_CapeC
							{
								OFFSET 15.715958 -8.608795 -6.935905
								CHANNELS 3 Xrotation Yrotation Zrotation
								JOINT newVegas:Left_CapeC1
								{
									OFFSET 0.000000 -8.688499 0.000000
									CHANNELS 3 Xrotation Yrotation Zrotation
									End Site
									{
										OFFSET 0.000000 8.688499 0.000000
									}
								}
							}
						}
						JOINT newVegas:Left_CapeB
						{
							OFFSET 26.118385 -8.608795 -7.079235
							CHANNELS 3 Xrotation Yrotation Zrotation
							JOINT newVegas:Left_CapeB1
							{
								OFFSET 0.000000 -8.688499 0.000000
								CHANNELS 3 Xrotation Yrotation Zrotation
								End Site
								{
									OFFSET 0.000000 8.688499 0.000000
								}
							}
						}
						JOINT newVegas:Left_CapeA
						{
							OFFSET 5.115639 -8.608795 -10.395809
							CHANNELS 3 Xrotation Yrotation Zrotation
							JOINT newVegas:Left_CapeA1
							{
								OFFSET 0.000000 -8.688499 0.000000
								CHANNELS 3 Xrotation Yrotation Zrotation
								End Site
								{
									OFFSET 0.000000 8.688499 0.000000
								}
							}
						}
					}
				}
				JOINT newVegas:RightShoulder
				{
					OFFSET -15.263000 10.923401 -0.547700
					CHANNELS 3 Xrotation Yrotation Zrotation
					JOINT newVegas:RightArm
					{
						OFFSET -25.438599 -2.830597 -13.032500
						CHANNELS 3 Xrotation Yrotation Zrotation
						JOINT newVegas:RightForeArm
						{
							OFFSET -29.960503 0.000000 0.000000
							CHANNELS 3 Xrotation Yrotation Zrotation
							JOINT newVegas:RightHand
							{
								OFFSET -27.849251 0.000000 0.000000
								CHANNELS 3 Xrotation Yrotation Zrotation
								JOINT newVegas:RightHandThumb1
								{
									OFFSET -4.487587 -3.305161 6.305391
									CHANNELS 3 Xrotation Yrotation Zrotation
									JOINT newVegas:RightHandThumb2
									{
										OFFSET -5.480453 -3.164139 3.164143
										CHANNELS 3 Xrotation Yrotation Zrotation
										JOINT newVegas:RightHandThumb3
										{
											OFFSET -5.159721 -2.978973 2.978967
											CHANNELS 3 Xrotation Yrotation Zrotation
											End Site
											{
												OFFSET -2.494507 5.926697 1.738678
											}
										}
									}
								}
								JOINT newVegas:RightHandIndex1
								{
									OFFSET -18.578728 -0.527832 5.208049
									CHANNELS 3 Xrotation Yrotation Zrotation
									JOINT newVegas:RightHandIndex2
									{
										OFFSET -3.192009 0.000000 0.000000
										CHANNELS 3 Xrotation Yrotation Zrotation
										JOINT newVegas:RightHandIndex3
										{
											OFFSET -3.835129 0.000000 0.000000
											CHANNELS 3 Xrotation Yrotation Zrotation
											End Site
											{
												OFFSET 0.034599 3.816971 0.371180
											}
										}
									}
								}
								JOINT newVegas:RightHandMiddle1
								{
									OFFSET -18.476105 0.000000 0.000000
									CHANNELS 3 Xrotation Yrotation Zrotation
									JOINT newVegas:RightHandMiddle2
									{
										OFFSET -3.324875 0.000000 0.000000
										CHANNELS 3 Xrotation Yrotation Zrotation
										JOINT newVegas:RightHandMiddle3
										{
											OFFSET -4.596550 0.000000 0.000000
											CHANNELS 3 Xrotation Yrotation Zrotation
											End Site
											{
												OFFSET -0.057701 4.578827 0.399218
											}
										}
									}
								}
								JOINT newVegas:RightHandRing1
								{
									OFFSET -17.732719 0.121887 -4.201567
									CHANNELS 3 Xrotation Yrotation Zrotation
									JOINT newVegas:RightHandRing2
									{
										OFFSET -2.733170 0.000000 0.000000
										CHANNELS 3 Xrotation Yrotation Zrotation
										JOINT newVegas:RightHandRing3
										{
											OFFSET -3.178268 0.000000 0.000000
											CHANNELS 3 Xrotation Yrotation Zrotation
											End Site
											{
												OFFSET -0.119102 3.170624 0.185394
											}
										}
									}
								}
								JOINT newVegas:RightHandPinky1
								{
									OFFSET -15.989624 -0.606689 -7.535461
									CHANNELS 3 Xrotation Yrotation Zrotation
									JOINT newVegas:RightHandPinky2
									{
										OFFSET -2.538986 0.000000 0.000000
										CHANNELS 3 Xrotation Yrotation Zrotation
										JOINT newVegas:RightHandPinky3
										{
											OFFSET -2.593102 0.000000 0.000000
											CHANNELS 3 Xrotation Yrotation Zrotation
											End Site
											{
												OFFSET 0.150902 2.584198 0.152708
											}
										}
									}
								}
							}
							JOINT newVegas:Right_CapeC
							{
								OFFSET -15.715958 -8.608795 -6.935905
								CHANNELS 3 Xrotation Yrotation Zrotation
								JOINT newVegas:Right_CapeC1
								{
									OFFSET 0.000000 -8.688499 0.000000
									CHANNELS 3 Xrotation Yrotation Zrotation
									End Site
									{
										OFFSET 0.000000 8.688499 0.000000
									}
								}
							}
							JOINT newVegas:Right_Sleeve
							{
								OFFSET -0.267448 -0.649994 0.577675
								CHANNELS 3 Xrotation Yrotation Zrotation
								End Site
								{
									OFFSET 0.000000 15.991302 0.000000
								}
							}
						}
						JOINT newVegas:Right_CapeA
						{
							OFFSET -5.115540 -8.608795 -10.395824
							CHANNELS 3 Xrotation Yrotation Zrotation
							JOINT newVegas:Right_CapeA1
							{
								OFFSET 0.000000 -8.688499 0.000000
								CHANNELS 3 Xrotation Yrotation Zrotation
								End Site
								{
									OFFSET 0.000000 8.688499 0.000000
								}
							}
						}
						JOINT newVegas:Right_CapeB
						{
							OFFSET -26.118187 -8.608795 -7.079266
							CHANNELS 3 Xrotation Yrotation Zrotation
							JOINT newVegas:Right_CapeB1
							{
								OFFSET 0.000000 -8.688499 0.000000
								CHANNELS 3 Xrotation Yrotation Zrotation
								End Site
								{
									OFFSET 0.000000 8.688499 0.000000
								}
							}
						}
					}
				}
				JOINT newVegas:Left_Collar
				{
					OFFSET 18.625099 8.655502 8.828100
					CHANNELS 3 Xrotation Yrotation Zrotation
					JOINT newVegas:Left_Collar1
					{
						OFFSET 14.783401 10.540405 -1.259500
						CHANNELS 3 Xrotation Yrotation Zrotation
						End Site
						{
							OFFSET 0.000000 18.199875 0.000000
						}
					}
				}
				JOINT newVegas:Collar_Back
				{
					OFFSET 0.000000 15.630707 -20.132601
					CHANNELS 3 Xrotation Yrotation Zrotation
					End Site
					{
						OFFSET 0.000000 22.523010 0.000000
					}
				}
				JOINT newVegas:Left_Peck
				{
					OFFSET 17.239599 -5.132599 25.482599
					CHANNELS 3 Xrotation Yrotation Zrotation
					End Site
					{
						OFFSET 0.000000 22.523010 0.000000
					}
				}
				JOINT newVegas:Right_Peck
				{
					OFFSET -17.239599 -5.132202 25.482599
					CHANNELS 3 Xrotation Yrotation Zrotation
					End Site
					{
						OFFSET 0.000000 22.523010 0.000000
					}
				}
				JOINT newVegas:Right_Collar
				{
					OFFSET -18.625099 8.655792 8.828100
					CHANNELS 3 Xrotation Yrotation Zrotation
					JOINT newVegas:Right_Collar1
					{
						OFFSET -14.783401 10.539993 -1.259500
						CHANNELS 3 Xrotation Yrotation Zrotation
						End Site
						{
							OFFSET 0.000000 18.199631 0.000000
						}
					}
				}
			}
		}
		JOINT newVegas:Belly
		{
			OFFSET 0.000000 -6.540398 9.014299
			CHANNELS 3 Xrotation Yrotation Zrotation
			End Site
			{
				OFFSET 0.000000 11.566666 0.000000
			}
		}
	}
	JOINT newVegas:ElvisFacialAnim_Joint
	{
		OFFSET 1.000000 -95.330101 -8.825800
		CHANNELS 3 Xrotation Yrotation Zrotation
		End Site
		{
			OFFSET 0.000000 35.315800 0.000000
		}
	}
}
MOTION
Frames: 4
Frame Time: 0.016667
0.117896 92.242226 4.570998 -0.587398 -0.367419 -0.303435 0.000000 0.000000 0.000000 -13.188857 4.132061 9.763997 30.852883 3.489653 1.412430 -16.133749 2.226938 -10.869438 -0.000000 0.000000 0.000000 0.000000 0.000001 0.000001 -14.236705 2.003511 -3.042808 32.071611 -1.420232 -2.856193 -17.040104 -1.511247 6.904514 0.000000 -0.000000 0.000000 -0.000002 -0.000000 0.000000 0.361195 -0.182177 0.255405 -1.750145 -0.199001 0.196420 -1.750109 -0.188404 0.203701 0.187908 -0.079713 -0.167839 0.187922 -0.079713 -0.167839 -0.000000 -0.000000 -0.000000 0.187837 -0.079714 -0.167839 0.187975 -0.079713 -0.167839 0.000000 -0.000000 0.000000 -0.000000 -0.000000 -0.000000 0.993407 -13.202428 -11.017492 16.778892 -19.384219 -67.597371 -0.000005 -17.727283 -0.000000 -41.262225 6.787875 3.627183 -5.917883 16.359054 4.033989 -3.203478 11.997056 3.444667 0.000001 -0.000002 -0.000003 0.260630 1.880090 -15.783536 0.260635 1.880093 -15.783599 -0.000001 -0.000000 0.000002 0.523427 2.637834 -22.443056 0.524904 2.641401 -22.475130 0.000001 -0.000001 0.000001 0.898049 3.405125 -29.540978 0.898049 3.405133 -29.540968 -0.000000 0.000001 -0.000002 2.843612 6.562541 -31.481903 1.050189 -0.422480 -32.253601 0.000001 -0.000003 -0.000002 -0.000001 -0.000001 0.000001 -0.000001 -0.000001 0.000001 -0.000002 -0.000000 0.000001 -0.000000 0.000000 -0.000001 -0.000000 0.000000 -0.000001 -0.000000 0.000000 -0.000001 -0.000002 0.000000 -0.000001 1.651817 9.058838 10.503891 6.412942 25.534621 64.587512 -0.000006 12.370156 -0.000003 -21.507974 -14.216152 -3.290095 7.843975 -10.746959 2.716258 0.430929 -17.559388 -11.583991 0.000001 -0.000000 -0.000001 0.528290 -2.663084 22.437130 0.528295 -2.663085 22.437134 -0.000001 0.000001 -0.000003 1.160563 -3.851136 33.530102 1.160565 -3.851139 33.530109 0.000000 0.000004 0.000000 1.843402 -4.719904 42.648425 1.843413 -4.719921 42.648446 -0.000001 -0.000001 0.000000 1.994905 -4.878727 44.459095 1.994910 -4.878701 44.459122 -0.000000 0.000002 -0.000001 0.000001 -0.000001 0.000000 -0.000001 0.000000 -0.000001 0.000001 -0.000002 -0.000000 0.000001 0.000000 -0.000000 0.000001 0.000000 -0.000000 0.000001 0.000000 -0.000000 0.000001 -0.000000 -0.000000 -0.000000 -0.000000 -0.000000 -0.000000 -0.000000 -0.000000 -0.000000 -0.000000 -0.000000 -0.000000 -0.000000 -0.000000 -0.000000 -0.000000 -0.000000 -0.000000 -0.000000 -0.000000 -0.000000 -0.000000 -0.000000 -0.000000 -0.000000 0.000000 0.000000 0.000000 0.000000 
0.140208 92.246391 4.557685 -0.575627 -0.349022 -0.269509 -0.000000 0.000000 0.000000 -13.202247 4.172618 9.696183 30.804249 3.456235 1.462676 -16.093519 2.225713 -10.888951 0.000000 0.000000 0.000000 -0.000001 0.000001 -0.000000 -14.263043 1.981504 -3.129176 32.098177 -1.420389 -2.809737 -17.047450 -1.513150 6.904753 -0.000000 0.000000 -0.000000 0.000000 0.000000 -0.000000 0.374996 -0.161576 0.235499 -1.755795 -0.176235 0.190827 -1.755715 -0.166635 0.197366 0.200023 -0.081160 -0.177122 0.200031 -0.081161 -0.177122 0.000000 -0.000000 0.000000 0.200093 -0.081160 -0.177122 0.199945 -0.081161 -0.177121 0.000000 0.000000 0.000000 0.000000 -0.000000 0.000000 0.994041 -13.267619 -11.041539 16.766352 -19.385889 -67.571307 -0.000000 -17.712815 -0.000005 -41.267108 6.584299 3.801889 -5.917879 16.359054 4.033990 -3.203485 11.997056 3.444689 0.000002 -0.000000 -0.000003 0.260630 1.880091 -15.783531 0.260635 1.880094 -15.783585 -0.000000 -0.000000 -0.000002 0.523427 2.637836 -22.443056 0.524902 2.641401 -22.475113 0.000001 -0.000000 -0.000003 0.898049 3.405128 -29.540981 0.898049 3.405132 -29.540971 -0.000000 0.000001 -0.000005 2.843611 6.562552 -31.481899 1.050195 -0.422478 -32.253625 0.000001 -0.000002 -0.000002 0.000000 0.000001 -0.000000 0.000000 0.000001 -0.000000 -0.000001 0.000001 -0.000000 -0.000001 -0.000001 -0.000000 -0.000001 -0.000001 -0.000001 -0.000001 -0.000001 -0.000000 -0.000003 -0.000001 -0.000001 1.651096 9.037778 10.513392 6.473523 25.519861 64.541408 -0.000004 12.373798 -0.000002 -21.518695 -14.342731 -3.277693 7.843976 -10.746963 2.716245 0.430928 -17.559399 -11.583984 0.000000 -0.000000 -0.000001 0.528291 -2.663089 22.437110 0.528294 -2.663081 22.437141 0.000001 0.000002 -0.000005 1.160561 -3.851137 33.530099 1.160564 -3.851143 33.530082 0.000000 -0.000001 -0.000002 1.843403 -4.719908 42.648425 1.843409 -4.719913 42.648435 -0.000001 -0.000001 -0.000001 1.994909 -4.878734 44.459101 1.994903 -4.878707 44.459125 -0.000000 0.000003 -0.000000 -0.000000 0.000000 -0.000000 0.000000 0.000000 0.000000 -0.000000 0.000000 -0.000001 -0.000000 0.000000 -0.000000 -0.000000 0.000000 -0.000001 -0.000000 0.000000 -0.000000 -0.000000 -0.000000 -0.000001 -0.000000 0.000000 0.000000 -0.000000 0.000000 0.000000 -0.000000 0.000000 0.000000 -0.000000 0.000000 0.000000 -0.000000 0.000000 0.000000 -0.000000 0.000000 0.000000 -0.000000 0.000000 0.000000 -0.000000 0.000000 0.000000 -0.000000 0.000000 0.000000 
0.174544 92.248093 4.545104 -0.563361 -0.335364 -0.221920 0.000000 -0.000000 0.000000 -13.210423 4.220366 9.601923 30.755457 3.427721 1.515575 -16.059146 2.222622 -10.905087 0.000000 -0.000001 -0.000000 -0.000000 0.000000 -0.000000 -14.305491 1.953545 -3.253573 32.155571 -1.393180 -2.749230 -17.070057 -1.516575 6.905416 -0.000000 -0.000000 0.000000 0.000001 0.000000 -0.000000 0.389063 -0.140587 0.213108 -1.758987 -0.152911 0.185722 -1.758853 -0.144486 0.191302 0.211914 -0.086508 -0.187144 0.211919 -0.086508 -0.187144 0.000000 -0.000000 0.000000 0.211985 -0.086507 -0.187144 0.211895 -0.086509 -0.187144 -0.000000 0.000000 -0.000000 0.000000 -0.000000 -0.000000 0.994574 -13.331119 -11.067192 16.711227 -19.428791 -67.559395 0.000009 -17.694291 0.000017 -41.232824 6.340762 3.993484 -5.917874 16.359054 4.033970 -3.203491 11.997057 3.444689 0.000002 -0.000003 -0.000001 0.260630 1.880089 -15.783549 0.260634 1.880091 -15.783560 -0.000000 -0.000000 0.000001 0.523429 2.637835 -22.443069 0.524902 2.641403 -22.475130 0.000001 -0.000000 -0.000001 0.898048 3.405124 -29.540961 0.898048 3.405131 -29.540940 -0.000000 -0.000000 -0.000003 2.843609 6.562548 -31.481886 1.050194 -0.422473 -32.253615 0.000001 -0.000002 0.000000 0.000002 0.000000 -0.000000 0.000002 0.000000 -0.000000 0.000001 0.000000 -0.000000 -0.000001 0.000000 0.000000 -0.000001 0.000000 -0.000001 -0.000001 0.000000 0.000000 -0.000002 -0.000000 0.000000 1.655696 9.081052 10.518682 6.559966 25.463649 64.487313 0.000001 12.345276 0.000018 -21.449302 -14.196727 -3.323753 7.843972 -10.746956 2.716260 0.430919 -17.559399 -11.584002 0.000001 -0.000002 -0.000001 0.528291 -2.663085 22.437124 0.528296 -2.663083 22.437125 0.000000 0.000001 0.000003 1.160562 -3.851134 33.530099 1.160562 -3.851137 33.530092 0.000001 0.000001 0.000001 1.843405 -4.719901 42.648442 1.843410 -4.719913 42.648425 -0.000001 -0.000001 -0.000001 1.994914 -4.878731 44.459101 1.994911 -4.878700 44.459146 -0.000000 0.000002 -0.000001 -0.000000 -0.000001 0.000001 -0.000000 -0.000000 -0.000000 -0.000000 -0.000001 0.000000 0.000001 0.000001 0.000001 0.000001 0.000000 0.000002 0.000001 0.000001 0.000001 0.000001 0.000000 0.000002 -0.000000 0.000000 -0.000000 -0.000000 0.000000 -0.000000 -0.000000 0.000000 -0.000000 -0.000000 0.000000 -0.000000 -0.000000 0.000000 -0.000000 -0.000000 0.000000 -0.000000 -0.000000 0.000000 -0.000000 0.000000 0.000000 0.000000 0.000000 -0.000000 0.000000 
0.217148 92.255150 4.528516 -0.547733 -0.349680 -0.161616 0.000000 0.000000 0.000000 -13.186699 4.256482 9.503570 30.663998 3.435732 1.517768 -16.007831 2.217978 -10.898902 0.000000 0.000000 0.000000 -0.000001 0.000000 0.000000 -14.364313 1.971701 -3.401488 32.206821 -1.351551 -2.674462 -17.073325 -1.519937 6.909776 -0.000000 -0.000000 -0.000000 0.000001 -0.000000 -0.000000 0.417327 -0.112752 0.184580 -1.760835 -0.122205 0.183156 -1.760678 -0.115203 0.187763 0.226858 -0.093218 -0.187291 0.226860 -0.093218 -0.187290 -0.000000 -0.000000 -0.000000 0.226858 -0.093217 -0.187291 0.226788 -0.093220 -0.187290 -0.000000 0.000000 -0.000000 -0.000000 -0.000000 -0.000000 0.993603 -13.360153 -11.115196 16.611228 -19.504164 -67.520436 0.000001 -17.678775 0.000003 -41.176533 6.072791 4.205061 -5.917876 16.359046 4.033993 -3.203485 11.997058 3.444662 0.000002 -0.000004 -0.000001 0.260631 1.880088 -15.783519 0.260633 1.880095 -15.783616 0.000000 -0.000001 -0.000002 0.523428 2.637835 -22.443062 0.524902 2.641397 -22.475106 0.000001 -0.000000 0.000001 0.898046 3.405123 -29.540944 0.898053 3.405136 -29.540981 0.000001 0.000001 0.000002 2.843608 6.562546 -31.481868 1.050198 -0.422476 -32.253615 0.000001 -0.000001 -0.000003 0.000003 -0.000000 -0.000000 0.000003 -0.000000 -0.000000 0.000002 0.000000 -0.000000 0.000001 -0.000001 -0.000000 0.000001 -0.000001 -0.000000 0.000001 -0.000001 -0.000000 -0.000001 -0.000001 -0.000000 1.663817 9.137676 10.542183 6.627469 25.453453 64.389259 0.000007 12.280779 0.000000 -21.391206 -14.081757 -3.324081 7.843978 -10.746963 2.716254 0.430929 -17.559392 -11.583976 0.000001 -0.000002 -0.000001 0.528290 -2.663088 22.437132 0.528298 -2.663086 22.437124 -0.000001 -0.000000 -0.000003 1.160565 -3.851133 33.530116 1.160564 -3.851139 33.530106 0.000001 0.000001 0.000004 1.843408 -4.719901 42.648446 1.843409 -4.719913 42.648432 0.000000 -0.000003 -0.000001 1.994917 -4.878730 44.459132 1.994891 -4.878698 44.459122 0.000000 0.000003 0.000002 -0.000002 0.000001 0.000000 -0.000002 0.000000 0.000000 -0.000002 0.000000 -0.000001 0.000001 0.000000 -0.000000 0.000001 0.000000 -0.000001 0.000001 0.000000 -0.000000 0.000001 -0.000000 -0.000001 0.000001 0.000000 -0.000000 0.000001 0.000000 -0.000000 0.000001 0.000000 -0.000000 0.000001 0.000000 -0.000000 0.000001 0.000000 -0.000000 0.000001 0.000000 -0.000000 0.000001 0.000000 -0.000000 0.000000 -0.000000 0.000000 0.000000 0.000000 0.000000 
